<svg width="22" height="22" viewBox="0 0 22 22" fill="none" xmlns="http://www.w3.org/2000/svg">
<path fill-rule="evenodd" clip-rule="evenodd" d="M17.8003 5.44772C17.8003 6.13779 17.2411 6.69694 16.551 6.69694C15.8633 6.69694 15.3041 6.13779 15.3041 5.44772C15.3041 4.75765 15.8633 4.19972 16.551 4.19972C17.2411 4.19972 17.8003 4.75765 17.8003 5.44772ZM11.0019 14.4651C9.087 14.4651 7.53425 12.9137 7.53425 10.9989C7.53425 9.08405 9.087 7.53261 11.0019 7.53261C12.9156 7.53261 14.4684 9.08405 14.4684 10.9989C14.4684 12.9137 12.9156 14.4651 11.0019 14.4651ZM11.0019 5.65939C8.05061 5.65939 5.65969 8.05017 5.65969 10.9989C5.65969 13.9488 8.05061 16.3396 11.0019 16.3396C13.9496 16.3396 16.3405 13.9488 16.3405 10.9989C16.3405 8.05017 13.9496 5.65939 11.0019 5.65939ZM11.0019 2.47332C13.7783 2.47332 14.105 2.48433 15.2026 2.53327C16.2169 2.58099 16.7663 2.75106 17.1346 2.89177C17.6204 3.07897 17.9655 3.30654 18.3301 3.66993C18.6947 4.03454 18.9186 4.3808 19.1083 4.86532C19.2502 5.23238 19.4191 5.78297 19.4668 6.79727C19.5158 7.89356 19.5268 8.22269 19.5268 11.0001C19.5268 13.7763 19.5158 14.1054 19.4668 15.2017C19.4191 16.2148 19.2502 16.7666 19.1083 17.1324C18.9186 17.6194 18.6947 17.9644 18.3301 18.329C17.9655 18.6949 17.6204 18.92 17.1346 19.106C16.7663 19.2491 16.2169 19.418 15.2026 19.4657C14.105 19.5146 13.7783 19.5257 11.0019 19.5257C8.22191 19.5257 7.89276 19.5146 6.79764 19.4657C5.78327 19.418 5.23143 19.2491 4.86557 19.106C4.3798 18.92 4.03352 18.6949 3.67011 18.329C3.3067 17.9644 3.08156 17.6194 2.8919 17.1324C2.74997 16.7666 2.58111 16.2148 2.53339 15.2017C2.48322 14.1054 2.47343 13.7763 2.47343 11.0001C2.47343 8.22269 2.48322 7.89356 2.53339 6.79727C2.58111 5.78297 2.74997 5.23238 2.8919 4.86532C3.08156 4.3808 3.3067 4.03454 3.67011 3.66993C4.03352 3.30654 4.3798 3.07897 4.86557 2.89177C5.23143 2.75106 5.78327 2.58099 6.79764 2.53327C7.89276 2.48433 8.22191 2.47332 11.0019 2.47332ZM11.0019 0.600098C8.17542 0.600098 7.82179 0.611109 6.71199 0.661274C5.60585 0.711439 4.84967 0.887627 4.1877 1.14579C3.50248 1.4113 2.92372 1.76734 2.34618 2.34485C1.76741 2.92236 1.41012 3.50353 1.14582 4.18626C0.887644 4.84819 0.713893 5.60433 0.661278 6.7104C0.612334 7.82014 0.600098 8.17619 0.600098 10.9989C0.600098 13.824 0.612334 14.1776 0.661278 15.2873C0.713893 16.3946 0.887644 17.1508 1.14582 17.8115C1.41012 18.4954 1.76741 19.0754 2.34618 19.6541C2.92372 20.2328 3.50248 20.5877 4.1877 20.8532C4.84967 21.1101 5.60585 21.2875 6.71199 21.3365C7.82179 21.3879 8.17542 21.4001 11.0019 21.4001C13.8248 21.4001 14.1796 21.3879 15.2882 21.3365C16.3943 21.2875 17.1505 21.1101 17.8125 20.8532C18.4977 20.5877 19.0765 20.2328 19.6552 19.6541C20.2328 19.0754 20.5876 18.4954 20.8544 17.8115C21.1126 17.1508 21.2875 16.3946 21.3377 15.2873C21.3891 14.1776 21.4001 13.824 21.4001 10.9989C21.4001 8.17619 21.3891 7.82014 21.3377 6.7104C21.2875 5.60433 21.1126 4.84819 20.8544 4.18626C20.5876 3.50353 20.2328 2.92236 19.6552 2.34485C19.0765 1.76734 18.4977 1.4113 17.8125 1.14579C17.1505 0.887627 16.3943 0.711439 15.2882 0.661274C14.1796 0.611109 13.8248 0.600098 11.0019 0.600098Z" fill="black"/>
</svg>
