<svg width="26" height="20" viewBox="0 0 26 20" fill="none" xmlns="http://www.w3.org/2000/svg">
<path fill-rule="evenodd" clip-rule="evenodd" d="M0.234628 14.7031C0.234628 14.7031 3.74463 15.9134 5.20193 15.9134C5.20193 15.9134 7.15063 16.6843 8.48573 14.6251C8.48573 14.6251 8.93553 13.9829 8.32713 13.6696C8.32713 13.6696 2.75793 13.03 3.18303 12.0186C3.18303 12.0186 3.15703 11.4466 3.92663 11.5766C3.92663 11.5766 4.99783 9.5369 4.57533 9.2769C4.57533 9.2769 3.91233 8.7049 4.44143 8.6529C4.44143 8.6529 6.00273 8.8609 6.50583 8.9909C6.50583 8.9909 6.85033 8.87 6.53183 8.6347C6.21333 8.4007 5.68423 7.8755 5.78953 7.7728C5.78953 7.7728 5.97673 7.3321 6.82433 7.6948C6.82433 7.6948 7.29883 7.1943 7.05703 6.9369C7.05703 6.9369 6.34333 6.5222 6.68783 6.1829C6.68783 6.1829 8.30243 4.1952 10.1042 7.3321C10.1042 7.3321 10.5553 7.9275 10.6073 7.3568C10.6073 7.3568 12.8108 1.2182 15.6994 0.728102C15.6994 0.728102 16.6289 0.906202 16.8148 0.620202C16.8148 0.620202 17.6182 0.310802 17.8834 0.570802C17.8834 0.570802 18.146 0.959502 18.4671 0.728102C18.4671 0.728102 19.6046 0.284802 19.2601 1.0115C19.2601 1.0115 18.1694 2.1893 17.7716 2.2192C17.3738 2.2426 17.4544 2.7678 17.7989 2.8198C17.7989 2.8198 22.5673 3.1552 22.5673 6.6327C22.5673 6.6327 22.8468 7.4595 23.7477 6.6041C23.7477 6.6041 25.1101 5.7539 25.4559 5.7123C25.4559 5.7123 25.8277 5.4783 25.7744 6.023C25.7744 6.023 24.7929 7.687 23.7867 8.1537C23.7867 8.1537 23.177 8.9051 24.0506 8.7504C24.0506 8.7504 24.9008 8.5775 25.2986 8.3448C25.2986 8.3448 26.3347 7.8521 25.8563 8.7322C25.8563 8.7322 23.6801 10.1167 23.2017 10.1167C23.2017 10.1167 22.8858 10.1934 22.8858 10.4794C22.8858 10.4794 22.5933 19.9512 10.4513 19.9512C10.4513 19.9512 4.37123 19.9434 0.393228 15.3765C0.393228 15.3765 -0.373771 14.5731 0.234628 14.7031Z" fill="black"/>
</svg>
